# xmcd
#
# Track frame offsets:
#   150
#   11640
#   23650
#   36373
#   54263
#   71235
#   94859
#   110147
#   129196
#   144064
#   160859
#   176606
#   186535
#   197476
#   210338
#   221483
#   238934
#   251502
#   263402
#
# Disc length: 3742 seconds
#
# Revision: 0
# Processed by: cddbd v1.5.2PL0 Copyright (c) Steve Scherf et al.
# Submitted via: uFREEDB ActiveX Control 1.5
#
DISCID=080e9c13
DTITLE=Carreiro e Carreirinho - Compact Disc Studios
DYEAR=1900
DGENRE=Country
TTITLE0=Aniversariante do Dia
TTITLE1=Encontro Fatal
TTITLE2=Chumbo Trocado Não Dói
TTITLE3=João Bobo
TTITLE4=Minha História de Amor
TTITLE5=Dever de Um Médico
TTITLE6=Flor Proibida
TTITLE7=Teu Nome Tem Sete Letras
TTITLE8=Despedida
TTITLE9=Grandes Homens do Passado
TTITLE10=Rei dos Canoeiros
TTITLE11=Número Três
TTITLE12=A Noite a Nossa Procura
TTITLE13=Não Sou Seu Palhaço
TTITLE14=Romance Depojado
TTITLE15=Rosa
TTITLE16=O Facão do Cristiano
TTITLE17=Pulmão do Mundo
TTITLE18=Hômero Cordeiro
EXTD=
EXTT0=
EXTT1=
EXTT2=
EXTT3=
EXTT4=
EXTT5=
EXTT6=
EXTT7=
EXTT8=
EXTT9=
EXTT10=
EXTT11=
EXTT12=
EXTT13=
EXTT14=
EXTT15=
EXTT16=
EXTT17=
EXTT18=
PLAYORDER=
